<svg id="Capa_1" enable-background="new 0 0 511.056 511.056" height="512" viewBox="0 0 511.056 511.056" width="512" xmlns="http://www.w3.org/2000/svg"><g><g><path d="m473.28 353.75h-378.982c-37.751 0-68.355 30.603-68.355 68.355 0 37.751 30.603 68.355 68.355 68.355h378.982z" fill="#fdd79b"/><path d="m109.403 422.105c0-27.457 9.53-52.01 24.51-68.354h-39.615c-37.751 0-68.355 30.604-68.355 68.354 0 37.751 30.604 68.355 68.355 68.355h39.615c-14.98-16.345-24.51-40.898-24.51-68.355z" fill="#fccd7f"/><g><path d="m118.258 503.17h-28.211c-45.589 0-82.547-36.958-82.547-82.547 0-45.589 36.958-82.547 82.547-82.547h405.311c4.11 0 7.442 3.332 7.442 7.442v23.115c0 4.11-3.332 7.442-7.442 7.442h-404.52c-24.927 0-45.758 20.399-45.331 45.322.415 24.208 20.236 43.772 44.541 43.772h28.21 377.1c4.11 0 7.442 3.332 7.442 7.442v23.115c0 4.11-3.332 7.442-7.442 7.442h-377.1z" fill="#9cf8d2"/></g><path d="m206.867 500.771-26.407-10.929-26.407 10.929c-2.76 1.142-5.796-.886-5.796-3.874v-76.275h64.405v76.275c.001 2.987-3.035 5.016-5.795 3.874z" fill="#ee6161"/><path d="m37.208 184.708h369.078c38.234 0 69.228 30.994 69.228 69.228 0 38.234-30.994 69.228-69.228 69.228h-369.078z" fill="#fdd79b"/><path d="m37.208 184.708h84.232v138.456h-84.232z" fill="#fccd7f"/><g><path d="m392.23 338.075h28.211c45.589 0 82.547-36.958 82.547-82.547s-36.958-82.547-82.547-82.547h-405.311c-4.11 0-7.442 3.332-7.442 7.442v23.115c0 4.11 3.332 7.442 7.442 7.442h404.52c24.927 0 45.758 20.399 45.331 45.322-.415 24.208-20.236 43.772-44.541 43.772h-28.21-377.1c-4.11 0-7.442 3.332-7.442 7.442v23.115c0 4.11 3.332 7.442 7.442 7.442h377.1z" fill="#f47c7c"/></g><g fill="#ee6161"><path d="m15.13 210.98h104.908c-4.11 0-7.442-3.332-7.442-7.442v-23.115c0-4.11 3.332-7.442 7.442-7.442h-104.908c-4.11 0-7.442 3.332-7.442 7.442v23.115c0 4.11 3.332 7.442 7.442 7.442z"/><path d="m112.596 330.633v-23.115c0-4.11 3.332-7.442 7.442-7.442h-104.908c-4.11 0-7.442 3.332-7.442 7.442v23.115c0 4.11 3.332 7.442 7.442 7.442h104.908c-4.11 0-7.442-3.332-7.442-7.442z"/></g><path d="m473.28 19.868h-386.404c-37.864 0-68.559 30.695-68.559 68.559 0 37.864 30.695 68.559 68.559 68.559h386.404z" fill="#fdd79b"/><path d="m95.953 92.285c0-29.764 14.524-56.132 36.867-72.417h-45.944c-37.864 0-68.559 30.695-68.559 68.559 0 37.864 30.695 68.559 68.559 68.559h36.716c-17.032-16.302-27.639-39.262-27.639-64.701z" fill="#fccd7f"/><path d="m302.843 335.998 27.185-11.251 27.185 11.251c2.39.989 5.018-.767 5.018-3.354v-77.116h-64.405v77.116c-.001 2.587 2.627 4.343 5.017 3.354z" fill="#fdb441"/><g><g id="XMLID_1099_"><g><path d="m503.56 142.421v23.12c0 4.11-3.34 7.44-7.45 7.44h-377.1-28.21c-22.79 0-43.43-9.24-58.37-24.18-14.93-14.94-24.17-35.57-24.17-58.37 0-45.59 36.95-82.54 82.54-82.54h405.31c4.11 0 7.45 3.33 7.45 7.44v23.11c0 4.11-3.34 7.45-7.45 7.45h-404.52c-24.92 0-45.75 20.39-45.33 45.32.42 24.2 20.24 43.77 44.54 43.77h28.21 377.1c4.11 0 7.45 3.33 7.45 7.44z" fill="#fdb441"/></g></g></g><path d="m106.766 134.981h-15.966c-24.3 0-44.12-19.57-44.54-43.77-.42-24.93 20.41-45.32 45.33-45.32h17.302c10.61-17.484 27.038-31.042 46.596-38h-64.688c-45.59 0-82.54 36.95-82.54 82.54 0 22.8 9.24 43.43 24.17 58.37 14.94 14.94 35.58 24.18 58.37 24.18h28.21 27.613c-16.936-8.177-30.906-21.527-39.857-38z" fill="#fea613"/><path d="m209.375 171.307-28.158-11.654-28.158 11.654c-1.926.797-4.044-.619-4.044-2.703v-78.17h64.405v78.17c-.001 2.084-2.119 3.5-4.045 2.703z" fill="#9cf8d2"/><path d="m117.907 465.17h-27.86c-24.305 0-44.126-19.565-44.541-43.772-.427-24.923 20.404-45.322 45.331-45.322h28.382c8.121-17.511 20.735-31.079 35.76-38h-64.932c-45.589 0-82.547 36.958-82.547 82.547s36.958 82.547 82.547 82.547h28.211 31.094c-13.343-7.958-24.378-21.348-31.445-38z" fill="#6cf5c2"/></g><g><path d="m225.723 413.123h-13.061-64.405-16.604c-4.142 0-7.5 3.357-7.5 7.5s3.358 7.5 7.5 7.5h9.104v75.047c0 2.505 1.25 4.844 3.333 6.235s4.722 1.652 7.036.694l29.334-12.141 29.334 12.141c.923.382 1.897.57 2.868.57 1.463 0 2.917-.428 4.168-1.265 2.083-1.392 3.333-3.73 3.333-6.235v-75.047h5.561c4.142 0 7.5-3.357 7.5-7.5s-3.359-7.499-7.501-7.499zm-20.56 78.826-21.834-9.037c-.918-.38-1.893-.57-2.868-.57s-1.95.19-2.868.57l-21.834 9.037v-63.826h49.405v63.826z"/><path d="m161.234 292.575c-4.142 0-7.5 3.357-7.5 7.5s3.358 7.5 7.5 7.5h106.591c4.143 0 7.5-3.357 7.5-7.5s-3.357-7.5-7.5-7.5z"/><path d="m293.658 344.31c2.081 1.392 4.72 1.652 7.036.694l29.334-12.141 29.334 12.141c.923.382 1.897.57 2.867.57 1.463 0 2.917-.428 4.169-1.265 2.082-1.392 3.332-3.73 3.332-6.235v-75.047h9.104c4.143 0 7.5-3.357 7.5-7.5s-3.357-7.5-7.5-7.5h-16.604-64.404-13.061c-4.143 0-7.5 3.357-7.5 7.5s3.357 7.5 7.5 7.5h5.561v75.047c0 2.506 1.25 4.845 3.332 6.236zm61.072-81.282v63.826l-21.834-9.037c-.918-.38-1.894-.57-2.868-.57s-1.95.19-2.868.57l-21.834 9.037v-63.826z"/><path d="m496.114 53.386c8.239 0 14.942-6.703 14.942-14.942v-23.116c0-8.238-6.703-14.941-14.942-14.941h-405.31c-49.652 0-90.047 40.395-90.047 90.047 0 31.292 16.048 58.903 40.342 75.047h-25.969c-8.239 0-14.942 6.703-14.942 14.942v23.116c0 8.238 6.703 14.941 14.942 14.941h14.578v74.095h-14.578c-8.239 0-14.942 6.703-14.942 14.942v23.115c0 8.239 6.703 14.942 14.942 14.942h25.212c-24.294 16.145-40.342 43.756-40.342 75.049 0 49.652 40.395 90.047 90.047 90.047h28.21c4.142 0 7.5-3.357 7.5-7.5s-3.358-7.5-7.5-7.5h-28.21c-41.381 0-75.047-33.666-75.047-75.047 0-41.382 33.666-75.048 75.047-75.048h159.495 18.283c4.143 0 7.5-3.357 7.5-7.5s-3.357-7.5-7.5-7.5l-18.201.004c-.028 0-.054-.004-.082-.004h-159.495c-.879 0-1.754.016-2.627.041l-72.233.017-.058-23.058h114.142c4.142 0 7.5-3.357 7.5-7.5s-3.358-7.5-7.5-7.5h-84.563v-74.095h374.942c10.133 0 20.051 4.177 27.21 11.459 7.018 7.139 10.79 16.456 10.622 26.234-.344 20.072-16.961 36.401-37.041 36.401h-28.211c-4.143 0-7.5 3.357-7.5 7.5s3.357 7.5 7.5 7.5h28.211c28.211 0 51.556-22.943 52.039-51.145.236-13.833-5.063-26.976-14.924-37.006-9.96-10.133-23.776-15.944-37.906-15.944l-381.566.055c-.288-.033-.579-.055-.875-.055-.297 0-.589.022-.877.056l-21.143.003-.059-23.058h75.673 2.009 26.202c4.142 0 7.5-3.357 7.5-7.5s-3.358-7.5-7.5-7.5h-26.201-2.009c-41.381 0-75.047-33.666-75.047-75.047s33.666-75.047 75.047-75.047l405.252-.059.058 23.059h-56.343c-4.143 0-7.5 3.357-7.5 7.5s3.357 7.5 7.5 7.5h27.935v74.094h-224.287c-4.142 0-7.5 3.357-7.5 7.5s3.358 7.5 7.5 7.5l230.928-.053c.282.032.568.053.858.053.292 0 .578-.021.861-.053l19.99-.005.058 23.058h-75.673-139.159-37.863c-4.142 0-7.5 3.357-7.5 7.5s3.358 7.5 7.5 7.5h37.863 139.159c41.381 0 75.047 33.666 75.047 75.048 0 41.381-33.666 75.047-75.047 75.047h-7.473-20.738c-4.143 0-7.5 3.357-7.5 7.5s3.357 7.5 7.5 7.5h28.211c.146 0 .29-.005.436-.006l74.424-.052.058 23.058h-404.521c-14.13 0-27.946 5.812-37.907 15.944-9.86 10.031-15.16 23.174-14.923 37.007.483 28.2 23.828 51.144 52.04 51.144h28.21c4.142 0 7.5-3.357 7.5-7.5s-3.358-7.5-7.5-7.5h-28.21c-20.081 0-36.698-16.329-37.042-36.401-.168-9.778 3.604-19.095 10.622-26.233 7.159-7.283 17.077-11.46 27.21-11.46h374.942v74.095h-223.117c-4.142 0-7.5 3.357-7.5 7.5s3.358 7.5 7.5 7.5l252.638-.058.058 23.058h-252.696c-4.142 0-7.5 3.357-7.5 7.5s3.358 7.5 7.5 7.5h252.695c8.239 0 14.942-6.703 14.942-14.942v-23.115c0-8.239-6.703-14.942-14.942-14.942h-14.578v-74.095h14.578c8.239 0 14.942-6.703 14.942-14.942v-23.115c0-8.239-6.703-14.942-14.942-14.942h-25.212c24.294-16.144 40.342-43.754 40.342-75.047s-16.048-58.904-40.342-75.048h25.968c8.239 0 14.942-6.703 14.942-14.942v-23.115c0-8.239-6.703-14.942-14.942-14.942h-13.408v-74.098z"/><path d="m415.309 45.886c0-4.143-3.357-7.5-7.5-7.5h-316.215c-14.13 0-27.947 5.812-37.907 15.944-9.86 10.03-15.16 23.173-14.923 37.007.483 28.2 23.828 51.143 52.04 51.143h28.21c4.142 0 7.5-3.357 7.5-7.5s-3.358-7.5-7.5-7.5h-28.21c-20.081 0-36.698-16.329-37.042-36.4-.168-9.778 3.604-19.095 10.622-26.233 7.159-7.283 17.077-11.46 27.21-11.46h316.215c4.143-.001 7.5-3.358 7.5-7.501z"/><path d="m144.847 179.216c2.083 1.393 4.722 1.652 7.036.694l29.334-12.141 29.334 12.141c.923.382 1.897.57 2.868.57 1.463 0 2.917-.428 4.168-1.265 2.083-1.392 3.333-3.73 3.333-6.235v-75.047h5.561c4.142 0 7.5-3.357 7.5-7.5s-3.358-7.5-7.5-7.5h-13.061-64.405-16.605c-4.142 0-7.5 3.357-7.5 7.5s3.358 7.5 7.5 7.5h9.104v75.047c0 2.505 1.25 4.844 3.333 6.236zm61.072-81.283v63.826l-21.834-9.037c-.918-.38-1.893-.57-2.868-.57s-1.95.19-2.868.57l-21.834 9.037v-63.826z"/></g></g></svg>