<svg id="Capa_1" enable-background="new 0 0 512 512" height="512" viewBox="0 0 512 512" width="512" xmlns="http://www.w3.org/2000/svg"><g><path d="m319.697 72.19-63.711 151.36-109.308 259.68c33.854 4.56 70.906 6.93 109.307 6.93l168.092-395.26z" fill="#00cab0"/><path d="m512 428.7-6.045 6.09c-20.894 21.02-63.372 33.67-95.317 40.58-44.766 9.68-98.245 14.79-154.652 14.79v-266.61l63.711-151.36 104.38 22.71z" fill="#009398"/><path d="m319.697 72.19v285.52l-63.711 46.22-109.307 79.3c-15.858-2.14-31.016-4.76-45.286-7.85-31.936-6.9-74.403-19.53-95.317-40.53l-6.076-6.1 87.883-333.85 168.102-36.49.17-.04z" fill="#92e993"/><g fill="#00cab0"><path d="m241.016 145.97h29.977v30h-29.977z"/><path d="m241.016 205.97h29.977v30h-29.977z"/><path d="m241.016 265.97h29.977v30h-29.977z"/></g><path d="m319.697 72.19v285.52l-63.712 46.22v-345.52l.17-.04z" fill="#00cab0"/><g fill="#009398"><path d="m255.985 145.97h15.009v30h-15.009z"/><path d="m255.985 205.97h15.009v30h-15.009z"/><path d="m255.985 265.97h15.009v30h-15.009z"/></g><path d="m87.883 21.84h231.813v73.06h-231.813z" fill="#f3fbfc"/><path d="m424.077 21.84v73.06h-104.38l-19.985-36.53 19.985-36.53z" fill="#9dcfff"/><path d="m255.985 21.84h63.711v73.06h-63.711z" fill="#cff0fb"/></g></svg>