<svg height="512pt" viewBox="0 0 512 512" width="512pt" xmlns="http://www.w3.org/2000/svg"><path d="m512 256c0 141.386719-114.613281 256-256 256s-256-114.613281-256-256 114.613281-256 256-256 256 114.613281 256 256zm0 0" fill="#0fe1c2"/><path d="m487.03125 366.390625c-10.441406 21.828125-23.890625 41.949219-39.8125 59.820313-7.359375 8.269531-15.25 16.050781-23.617188 23.300781-44.910156 38.929687-103.5 62.488281-167.601562 62.488281s-122.691406-23.558594-167.601562-62.488281c-8.367188-7.25-16.257813-15.03125-23.617188-23.300781-15.921875-17.871094-29.371094-37.992188-39.8125-59.820313l23.832031-260.761719.839844-9.179687c1.238281-13.527344 10.03125-25.1875 22.699219-30.089844l21.210937-8.21875 111.359375-43.140625 51.089844 89.589844 51.089844-89.589844 111.359375 43.140625 21.210937 8.21875c12.667969 4.902344 21.460938 16.5625 22.699219 30.089844l.839844 9.179687zm0 0" fill="#303a59"/><path d="m256 104.589844v407.410156c-64.101562 0-122.691406-23.558594-167.601562-62.488281-8.367188-7.25-16.257813-15.03125-23.617188-23.300781-15.921875-17.871094-29.371094-37.992188-39.8125-59.820313l23.832031-260.761719.839844-9.179687c1.238281-13.527344 10.03125-25.1875 22.699219-30.089844l21.210937-8.21875 111.359375-43.140625zm0 0" fill="#232d47"/><path d="m250.3125 53.671875-45.40625-38.671875 51.09375 297.957031 51.09375-297.957031-45.40625 38.671875c-3.277344 2.792969-8.097656 2.792969-11.375 0zm0 0" fill="#fff"/><path d="m250.3125 53.671875-45.40625-38.671875 51.09375 297.957031v-257.1875c-2.023438 0-4.050781-.699219-5.6875-2.097656zm0 0" fill="#c7d9ff"/><path d="m307.09375 15-51.09375 297.957031 90.867188-141.3125c2.238281-3.480469 1.648437-8.0625-1.394532-10.863281l-13.070312-12.023438c-2.886719-2.660156-3.582032-6.945312-1.683594-10.382812l34.273438-61.972656c1.910156-3.453125 1.195312-7.769532-1.726563-10.421875zm0 0" fill="#3e4a68"/><path d="m204.90625 15 51.09375 297.957031-90.867188-141.3125c-2.238281-3.480469-1.648437-8.0625 1.394532-10.863281l13.070312-12.023438c2.886719-2.660156 3.582032-6.945312 1.683594-10.382812l-34.273438-61.972656c-1.910156-3.453125-1.195312-7.769532 1.726563-10.421875zm0 0" fill="#303a59"/><path d="m301.863281 39.691406c-17.445312 0-45.863281 19.972656-45.863281 19.972656s-28.417969-19.972656-45.863281-19.972656c-17.445313 0-17.445313 76.179688 0 76.179688 17.445312 0 45.863281-19.96875 45.863281-19.96875s28.417969 19.96875 45.863281 19.96875c17.445313.003906 17.445313-76.179688 0-76.179688zm0 0" fill="#ff3345"/><path d="m210.136719 39.691406c-17.445313 0-17.445313 76.179688 0 76.179688 17.445312 0 45.863281-19.96875 45.863281-19.96875v-36.238282s-28.417969-19.972656-45.863281-19.972656zm0 0" fill="#e32828"/><path d="m256 107.558594c-12.199219 0-22.089844-9.890625-22.089844-22.09375v-15.363282c0-12.203124 9.890625-22.089843 22.089844-22.089843s22.089844 9.886719 22.089844 22.089843v15.363282c0 12.203125-9.890625 22.09375-22.089844 22.09375zm0 0" fill="#ff6375"/><path d="m247.300781 85.464844v-15.363282c0-9.867187 6.46875-18.21875 15.394531-21.054687-2.113281-.671875-4.359374-1.035156-6.695312-1.035156-12.199219 0-22.089844 9.886719-22.089844 22.089843v15.363282c0 12.203125 9.890625 22.09375 22.089844 22.09375 2.335938 0 4.582031-.367188 6.695312-1.039063-8.925781-2.835937-15.394531-11.1875-15.394531-21.054687zm0 0" fill="#ff3345"/><path d="m274.167969 362c0 10.035156-8.132813 18.167969-18.167969 18.167969s-18.167969-8.132813-18.167969-18.167969 8.132813-18.167969 18.167969-18.167969 18.167969 8.132813 18.167969 18.167969zm0 0" fill="#ffcf11"/><path d="m247.832031 362c0-8.296875 5.570313-15.28125 13.167969-17.453125-1.589844-.453125-3.265625-.710937-5-.710937-10.03125 0-18.167969 8.132812-18.167969 18.164062 0 10.035156 8.132813 18.167969 18.167969 18.167969 1.734375 0 3.410156-.257813 5-.714844-7.597656-2.171875-13.167969-9.15625-13.167969-17.453125zm0 0" fill="#ff9e00"/><path d="m274.167969 454.488281c0 10.035157-8.132813 18.167969-18.167969 18.167969s-18.167969-8.132812-18.167969-18.167969c0-10.03125 8.132813-18.164062 18.167969-18.164062s18.167969 8.132812 18.167969 18.164062zm0 0" fill="#ffcf11"/><path d="m247.832031 454.488281c0-8.296875 5.570313-15.277343 13.167969-17.453125-1.589844-.453125-3.265625-.710937-5-.710937-10.03125 0-18.167969 8.132812-18.167969 18.167969 0 10.03125 8.132813 18.164062 18.167969 18.164062 1.734375 0 3.410156-.257812 5-.710938-7.597656-2.175781-13.167969-9.160156-13.167969-17.457031zm0 0" fill="#ff9e00"/><path d="m447.21875 426.210938c-7.359375 8.269531-15.25 16.050781-23.617188 23.300781l-21.652343-154.222657c-1.238281-8.847656-1.871094-17.769531-1.871094-26.710937v-108.296875c0-3.972656 5.792969-4.402344 6.390625-.480469zm0 0" fill="#232d47"/><path d="m111.921875 160.28125v108.296875c0 8.941406-.632813 17.863281-1.871094 26.710937l-21.652343 154.222657c-8.367188-7.25-16.257813-15.03125-23.617188-23.300781l40.75-266.410157c.597656-3.921875 6.390625-3.492187 6.390625.480469zm0 0" fill="#303a59"/></svg>