<svg id="line_color" height="512" viewBox="0 0 74 74" width="512" xmlns="http://www.w3.org/2000/svg" data-name="line color"><path d="m63.751 51.518h-55.862a.5.5 0 0 1 0-1h55.862a.5.5 0 1 1 0 1z" fill="#323c6b"/><path d="m38.924 20.373a1.217 1.217 0 0 1 -1.162-.738 2.1 2.1 0 0 0 -4.078.738 2.078 2.078 0 0 0 1.468 1.927 2.735 2.735 0 0 1 1.889 2.525v3.2h-2.5v-2.312a1.32 1.32 0 0 0 -.747-1.19 4.614 4.614 0 1 1 6.306-5.776 1.232 1.232 0 0 1 -1.176 1.626z" fill="#eeefee"/><path d="m37.042 28.531h-2.506a.5.5 0 0 1 -.5-.5v-2.318a.814.814 0 0 0 -.464-.739 5.114 5.114 0 1 1 7-6.4 1.648 1.648 0 0 1 -.2 1.538 1.766 1.766 0 0 1 -1.45.764 1.715 1.715 0 0 1 -1.632-1.064 1.6 1.6 0 0 0 -3.108.564 1.589 1.589 0 0 0 1.141 1.463 3.234 3.234 0 0 1 2.217 2.993v3.2a.5.5 0 0 1 -.498.499zm-2.006-1h1.506v-2.7a2.245 2.245 0 0 0 -1.563-2.055 2.573 2.573 0 0 1 -1.8-2.4 2.6 2.6 0 0 1 5.046-.911.809.809 0 0 0 1.321.079.665.665 0 0 0 .085-.618 4.112 4.112 0 1 0 -5.629 5.15 1.832 1.832 0 0 1 1.029 1.64z" fill="#323c6b"/><path d="m53.4 41.419c-9.059-1.7-11.146-7.651-11.231-7.94v-.017a6.354 6.354 0 0 0 -1.934-4.411 6.423 6.423 0 0 0 -7.86-.866 6 6 0 0 0 -2.9 5.265v.029c-.085.289-2.171 6.244-11.231 7.94-12.955 2.426-16.416 6.532-16.416 12.318v.288a2.545 2.545 0 1 0 5.089 0v-.288c0-2.291 1.443-5.294 12.267-7.313a19.808 19.808 0 0 0 12.482-7.312 2.227 2.227 0 0 1 1.773-.848h4.778a2.227 2.227 0 0 1 1.773.848 19.8 19.8 0 0 0 12.481 7.312c10.825 2.019 12.267 5.022 12.267 7.313v.3a2.545 2.545 0 1 0 5.09 0v-.3c0-5.786-3.462-9.892-16.428-12.318z" fill="#fcd462"/><path d="m69.83 53.74v.3a2.565 2.565 0 0 1 -2.23 2.53 2.352 2.352 0 0 0 .06-.54v-.3c0-5.79-3.46-9.89-16.42-12.32-9.06-1.69-11.15-7.65-11.23-7.94v-.02a6.412 6.412 0 0 0 -9.59-5.38 5.633 5.633 0 0 1 1.96-1.89 6.433 6.433 0 0 1 7.86.87 6.353 6.353 0 0 1 1.93 4.41v.02c.09.29 2.17 6.24 11.23 7.94 12.97 2.43 16.43 6.53 16.43 12.32z" fill="#f7be56"/><path d="m57.15 45.249a.6.6 0 0 1 -.171-.025 55.643 55.643 0 0 0 -5.5-1.29q-.467-.088-.911-.19a.6.6 0 0 1 .268-1.17q.42.1.864.18a57.26 57.26 0 0 1 5.615 1.319.6.6 0 0 1 -.169 1.176z" fill="#fff"/><path d="m60.308 46.347a.605.605 0 0 1 -.228-.045q-.486-.2-1.009-.391a.6.6 0 1 1 .412-1.127q.546.2 1.053.407a.6.6 0 0 1 -.228 1.156z" fill="#fff"/><g fill="#323c6b"><path d="m72.464 56.5a.5.5 0 0 1 -.464-.677 5.074 5.074 0 0 0 .307-1.536.506.506 0 0 1 .525-.474.5.5 0 0 1 .474.525 6.077 6.077 0 0 1 -.37 1.839.5.5 0 0 1 -.472.323z"/><path d="m67.283 60.087a6.057 6.057 0 0 1 -5.27-3.087.5.5 0 0 1 .872-.49 5.035 5.035 0 0 0 7.21 1.723.5.5 0 1 1 .56.829 6.019 6.019 0 0 1 -3.372 1.025z"/><path d="m15.466 39.535a.5.5 0 0 1 -.12-.986c.314-.078.633-.154.959-.229a.5.5 0 1 1 .223.974q-.478.111-.94.226a.515.515 0 0 1 -.122.015z"/><path d="m18.416 38.814a.5.5 0 0 1 -.11-.987c5.479-1.244 7.314-4.29 7.745-5.194a.5.5 0 0 1 .9.43c-.481 1.007-2.509 4.4-8.427 5.739a.466.466 0 0 1 -.108.012z"/><path d="m67.283 57.087a3.048 3.048 0 0 1 -3.045-3.045v-.3c0-1.979-1.23-4.839-11.859-6.821a20.381 20.381 0 0 1 -12.785-7.5 1.74 1.74 0 0 0 -1.377-.653h-4.779a1.738 1.738 0 0 0 -1.376.653 20.387 20.387 0 0 1 -12.786 7.5c-10.629 1.979-11.859 4.837-11.859 6.816v.288a3.045 3.045 0 1 1 -6.089 0v-.288c0-6.861 4.876-10.572 16.831-12.809 8.373-1.568 10.6-6.924 10.824-7.534a6.477 6.477 0 0 1 3.151-5.644 6.928 6.928 0 0 1 8.456.945 6.846 6.846 0 0 1 2.082 4.7c.227.612 2.452 5.966 10.825 7.534 11.954 2.237 16.831 5.948 16.831 12.809v.3a3.048 3.048 0 0 1 -3.045 3.049zm-33.845-19.323h4.779a2.744 2.744 0 0 1 2.169 1.043 19.4 19.4 0 0 0 12.177 7.126c11.234 2.095 12.675 5.271 12.675 7.8v.3a2.045 2.045 0 1 0 4.09 0v-.3c0-4.586-1.941-9.192-16.015-11.826-9.6-1.8-11.6-8.226-11.62-8.291a.516.516 0 0 1 -.02-.141 5.845 5.845 0 0 0 -1.79-4.077 5.948 5.948 0 0 0 -7.258-.781 5.476 5.476 0 0 0 -2.643 4.829.693.693 0 0 1 -.02.17c-.019.065-2.016 6.492-11.619 8.291-14.075 2.638-16.015 7.244-16.015 11.83v.288a2.045 2.045 0 1 0 4.089 0v-.288c0-2.533 1.441-5.709 12.675-7.8a19.4 19.4 0 0 0 12.178-7.13 2.741 2.741 0 0 1 2.168-1.043z"/></g></svg>