<svg height="480pt" viewBox="-16 0 480 480" width="480pt" xmlns="http://www.w3.org/2000/svg"><path d="m8 480h64c4.417969 0 8-3.582031 8-8v-16c-.042969-10.132812-6.445312-19.148438-16-22.527344v-385.472656h320v385.472656c-9.554688 3.378906-15.957031 12.394532-16 22.527344v16c0 4.417969 3.582031 8 8 8h64c4.417969 0 8-3.582031 8-8v-16c-.042969-10.132812-6.445312-19.148438-16-22.527344v-425.472656c0-4.417969-3.582031-8-8-8h-32c-4.417969 0-8 3.582031-8 8v24h-320v-24c0-4.417969-3.582031-8-8-8h-32c-4.417969 0-8 3.582031-8 8v425.472656c-9.554688 3.378906-15.9570312 12.394532-16 22.527344v16c0 4.417969 3.582031 8 8 8zm424-16h-48v-8c0-4.417969 3.582031-8 8-8h32c4.417969 0 8 3.582031 8 8zm-32-448h16v416h-16zm-368 0h16v416h-16zm-16 440c0-4.417969 3.582031-8 8-8h32c4.417969 0 8 3.582031 8 8v8h-48zm0 0"/></svg>