<svg id="Capa_1" enable-background="new 0 0 512 512" height="512" viewBox="0 0 512 512" width="512" xmlns="http://www.w3.org/2000/svg"><g><g id="_x3C_Group_x3E__39_"><path d="m495.5 256c0-132.272-107.228-239.5-239.5-239.5-64.894 0-123.76 25.81-166.893 67.724-44.784 43.518-68.607 104.398-68.607 171.776 0 132.272 103.228 236.5 235.5 236.5 65.176 0 124.272-23.035 167.455-65.272 44.454-43.481 72.045-104.132 72.045-171.228z" fill="#faf063"/><path d="m276 475.5c-132.272 0-239.5-107.228-239.5-239.5 0-61.047 22.853-116.748 60.454-159.046-49.351 43.87-80.454 107.821-80.454 179.046 0 132.272 107.228 239.5 239.5 239.5 71.225 0 135.176-31.103 179.046-80.454-42.298 37.601-97.999 60.454-159.046 60.454z" fill="#f5de46"/><path d="m82.457 232.603c.349-2.083-1.451-3.883-3.534-3.534-9.69 1.623-33.964 6.11-49.842 12.689-5.221 2.163-8.258 5.803-10.847 8.391-12.611 12.611-12.994 31.304-.383 43.915s31.432 11.973 44.043-.638c2.588-2.588 5.711-5.76 7.874-10.981 6.579-15.878 11.065-40.153 12.689-49.842z" fill="#f5fcff"/><path d="m431.512 234.534c-.349-2.083 1.451-3.883 3.534-3.534 4.47.749 10.076.176 18.497 2.068 15.836 3.558 34.67 9.003 41.498 15.831 9.024 9.024 11.591 22.06 7.7 33.366-1.546 4.494-5.049 7.276-8.636 10.863-12.611 12.611-30.793 12.441-43.404-.17-10.458-10.46-17.032-45.548-19.189-58.424z" fill="#f5fcff"/><path d="m36.958 274.567c-8.876-8.876-11.496-21.632-7.877-32.807-5.22 2.163-9.535 4.551-12.123 7.139-12.611 12.611-12.611 33.057 0 45.668s33.057 12.611 45.668 0c2.588-2.588 4.976-6.903 7.139-12.123-11.175 3.619-23.93.999-32.807-7.877z" fill="#e6f7fe"/><path d="m469.373 274.567c-6.828-6.829-12.272-25.662-15.83-41.498-8.421-1.892-15.996-3.251-20.466-4-2.083-.349-3.883 1.451-3.534 3.534 2.157 12.876 9.37 51.505 19.83 61.964 12.611 12.611 33.057 12.611 45.668 0 3.587-3.587 6.15-7.809 7.697-12.303-11.306 3.89-24.341 1.327-33.365-7.697z" fill="#e6f7fe"/><path d="m359.302 373.031c0 21.933-9.005 41.975-23.877 57.308-17.824 18.377-48.075 27.991-77.352 27.991h-8.146c-53.692 0-94.544-36.132-94.544-84.351 0-9.003 9.368-12.01 15.319-10.723 1.035.224 3.464-.153 4.454.262 3.082 1.293 6.271 2.517 9.559 3.654 20.548 7.162 45.002 11.319 71.284 11.319 24.88 0 48.132-3.719 67.979-10.193 5.547-1.803 10.831-3.831 15.802-6.048 8.991-4.007 19.522 1.778 19.522 10.781z" fill="#a4ace3"/><path d="m284.073 442.33h-12.146c-50.504 0-92.018-34.578-96.77-78.814-.99-.415-1.97-.837-2.938-1.266-8.978-4.007-19.521 1.778-19.521 10.781 0 48.22 43.537 87.299 97.229 87.299h12.146c25.821 0 54.587-11.117 73.352-29.991-15.387 9.17-31.498 11.991-51.352 11.991z" fill="#8a94db"/><path d="m182.617 432.872s12.29-13.332 20.639-16.06c7.551-2.467 15.661-3.253 23.757-2.158 9.287 1.257 19.718 2.285 28.988 2.285 10.02 0 22.17-1.334 32.888-2.88 17.236-2.486 34.595 3.58 46.524 16.267l.013.012c-9.928 9.693-19.615 13.678-26.926 17.411-15.946 8.143-31.372 10.58-51.218 10.58-22.6 0-33.728-1.245-53.388-10.437-11.664-5.451-16.316-10.511-21.277-15.02z" fill="#e27f86"/><path d="m308.691 449.65c7.287-3.74 17.138-9.32 26.733-19.311-.503.436-32.814 11.991-51.352 11.991h-12.146c-26.805 0-51.077-9.742-68.665-25.497-8.349 2.728-16.02 7.489-22.224 14.055l-1.885 1.995c.034.033.068.066.102.099 3.386 3.074 8.217 7.293 14.616 11.384 1.562.991 3.16 1.939 4.788 2.848 1.661.921 3.399 1.821 5.234 2.679 3.068 1.434 5.928 2.675 8.657 3.748 8.221 3.077 17.014 5.166 26.195 6.11 5.459.454 11.43.578 18.536.578 8.315 0 15.849-.437 22.976-1.533 10.122-1.719 19.687-4.845 28.435-9.146z" fill="#df646e"/></g><g><path d="m470.97 362.023c-3.657-1.952-8.198-.569-10.149 3.084-40.475 75.816-118.958 122.914-204.821 122.914-108.164 0-200.815-73.866-225.61-177.624 3.08.742 6.231 1.115 9.382 1.115 10.191 0 20.383-3.879 28.141-11.637 11.356-11.357 18.61-46.245 21.924-66.032.565-3.365-.537-6.813-2.947-9.223-2.409-2.411-5.857-3.515-9.223-2.95-14.55 2.437-37.256 7.008-52.777 13.77 3.231-36.536 15.076-71.855 34.627-102.901 2.207-3.505 1.155-8.136-2.351-10.344-3.503-2.206-8.136-1.154-10.344 2.35-22.987 36.503-35.974 78.548-37.65 121.757-12.999 15.618-12.184 38.928 2.46 53.574.493.493.995.969 1.507 1.43 10.307 55.554 39.726 106.282 83.068 143.08 44.536 37.813 101.285 58.637 159.792 58.637 91.413 0 174.966-50.139 218.054-130.85 1.952-3.655.571-8.199-3.083-10.15zm-413.664-72.756c-9.667 9.667-25.399 9.668-35.066 0-9.667-9.667-9.667-25.398 0-35.065 5.446-5.446 25.428-11.837 51.719-16.654-4.816 26.29-11.207 46.272-16.653 51.719z"/><path d="m165.664 298.478c0 22.752 18.509 41.261 41.262 41.261 9.968 0 19.121-3.553 26.26-9.459v6.447c0 4.142 3.358 7.501 7.501 7.501s7.501-3.358 7.501-7.501v-76.499c0-4.142-3.358-7.501-7.501-7.501s-7.501 3.358-7.501 7.501v6.447c-7.14-5.906-16.292-9.459-26.26-9.459-22.753.001-41.262 18.51-41.262 41.262zm67.521 0c0 14.48-11.78 26.26-26.26 26.26s-26.26-11.78-26.26-26.26 11.78-26.26 26.26-26.26 26.26 11.78 26.26 26.26z"/><path d="m263.188 298.478c0 24.934 20.285 45.219 45.219 45.219 11.381-.261 21.716-4.109 29.509-13.327 2.663-3.173 2.249-7.904-.924-10.567s-7.904-2.249-10.567.924c-3.491 4.452-10.583 8.036-18.017 7.969-16.662 0-30.218-13.556-30.218-30.218s13.556-30.218 30.218-30.218c6.056 0 11.897 1.783 16.89 5.156 3.433 2.32 8.094 1.417 10.414-2.016 2.319-3.432 1.416-8.095-2.017-10.414-7.482-5.056-16.227-7.728-25.287-7.728-24.935.001-45.22 20.286-45.22 45.22z"/><path d="m372.1 216.739c-4.143 0-7.501 3.358-7.501 7.501v21.749h-8.652c-4.143 0-7.501 3.358-7.501 7.501 0 4.142 3.358 7.501 7.501 7.501h8.652v75.737c0 4.142 3.358 7.501 7.501 7.501s7.501-3.358 7.501-7.501v-75.738h8.798c4.143 0 7.501-3.358 7.501-7.501 0-4.142-3.358-7.501-7.501-7.501h-8.798v-21.748c0-4.143-3.358-7.501-7.501-7.501z"/><path d="m128.839 237.249v18.268h-5.238c-4.143 0-7.501 3.358-7.501 7.501s3.358 7.501 7.501 7.501h5.238v66.209c0 4.142 3.358 7.501 7.501 7.501s7.501-3.358 7.501-7.501v-66.209h9.322c4.143 0 7.501-3.358 7.501-7.501s-3.358-7.501-7.501-7.501h-9.322v-18.268c0-2.211.439-3.686 1.303-4.385 1.666-1.345 5.602-1.298 7.745-.839 4.023.902 8.02-1.617 8.946-5.639.928-4.037-1.592-8.063-5.629-8.991-1.247-.287-12.426-2.619-20.39 3.721-3.184 2.533-6.977 7.389-6.977 16.133z"/><path d="m196.416 80.304h-43.217c-4.143 0-7.501 3.358-7.501 7.501v106.628c0 4.142 3.358 7.501 7.501 7.501s7.501-3.358 7.501-7.501v-46.823h32.283c4.143 0 7.501-3.358 7.501-7.501 0-4.142-3.358-7.501-7.501-7.501h-32.283v-37.303h35.716c4.143 0 7.501-3.358 7.501-7.501s-3.359-7.5-7.501-7.5z"/><path d="m305.873 110.919c-4.143 0-7.501 3.358-7.501 7.501v75.898c0 4.142 3.358 7.501 7.501 7.501s7.501-3.358 7.501-7.501v-36.632c0-18.852 8.116-31.034 20.677-31.034 4.792 0 8.398 1.312 11.022 4.01 4.389 4.512 6.531 13.329 6.194 25.499-.002.069-.003.138-.003.208v37.588c0 4.142 3.358 7.501 7.501 7.501s7.501-3.358 7.501-7.501v-37.487c.439-16.492-3.072-28.694-10.439-36.267-5.519-5.674-12.846-8.552-21.775-8.552-7.281 0-14.588 2.398-20.677 7.414v-.644c-.002-4.144-3.359-7.502-7.502-7.502z"/><path d="m222.762 110.919c-4.143 0-7.501 3.358-7.501 7.501v52.593c-.674 16.457 15.81 31.363 33.623 31.338 21.679.3 35.814-19.157 34.487-31.393v-52.537c0-4.142-3.358-7.501-7.501-7.501s-7.501 3.358-7.501 7.501v52.537c1.1 6.573-8.591 16.692-19.486 16.392-7.699.403-19.353-7.331-18.621-16.337v-52.593c0-4.143-3.357-7.501-7.5-7.501z"/><path d="m502.818 246.29c-2.454-63.492-28.831-122.806-74.485-167.268-46.378-45.169-107.581-70.044-172.333-70.044-72.241 0-140.649 31.496-187.686 86.411-2.695 3.146-2.328 7.881.817 10.576 3.147 2.695 7.882 2.329 10.576-.817 44.183-51.584 108.439-81.169 176.293-81.169 121.819 0 220.784 91.808 231.117 211.463-15.521-6.764-38.232-11.335-52.785-13.773-3.367-.564-6.813.539-9.223 2.95-2.409 2.41-3.511 5.858-2.947 9.223 3.314 19.787 10.568 54.676 21.925 66.032 7.758 7.758 17.949 11.637 28.139 11.637 3.151 0 6.302-.373 9.381-1.115-1.915 7.969-4.253 15.84-6.993 23.525-1.391 3.902.645 8.193 4.546 9.584.833.297 1.683.438 2.519.438 3.082 0 5.971-1.915 7.065-4.984 4.354-12.215 7.744-24.871 10.117-37.655.511-.461 1.014-.937 1.506-1.429 14.648-14.65 15.46-37.967 2.451-53.585zm-48.123 42.977c-5.447-5.447-11.838-25.429-16.654-51.719 26.291 4.816 46.273 11.208 51.719 16.654 9.667 9.667 9.667 25.398.001 35.065-9.667 9.667-25.399 9.668-35.066 0z"/><path d="m249.926 452.848c-3.153 0-6.329-.147-9.44-.437-4.133-.386-7.78 2.649-8.164 6.773-.384 4.125 2.649 7.78 6.773 8.164 4.757.603 17.59.514 22.979.501 31.025 0 58.937-12.278 78.133-31.743 15.971-16.002 26.741-39.141 26.605-63.065 0-6.411-3.346-12.41-8.949-16.048-6.198-4.023-14.292-4.63-21.13-1.585-4.765 2.125-9.835 4.065-15.075 5.768-19.701 6.427-42.405 9.824-65.658 9.824-24.561 0-48.359-3.77-68.839-10.909-4.019-1.39-8.025-2.967-11.892-4.682-6.83-3.048-14.925-2.441-21.125 1.583-5.608 3.639-8.956 9.638-8.956 16.049 0 35.995 22.055 68.44 57.559 84.671 3.768 1.723 8.218.065 9.94-3.703 1.722-3.767.064-8.218-3.703-9.94-6.908-3.158-13.207-7.033-18.825-11.48 9.852-8.344 22.91-12.237 35.846-10.488 11.538 1.562 21.63 2.353 29.996 2.353 8.935 0 20.362-.995 33.963-2.957 12.286-1.777 24.67 1.542 34.384 8.948-16.15 13.861-38.11 22.402-62.273 22.402h-12.149zm37.894-46.198c-12.893 1.861-23.599 2.803-31.82 2.803-7.696 0-17.111-.746-27.984-2.217-17.716-2.4-35.586 3.188-48.79 15.004-12.141-13.775-19.036-30.961-19.036-49.198 0-1.727 1.152-2.838 2.119-3.465 1.555-1.009 4.169-1.661 6.863-.461 4.267 1.892 8.67 3.626 13.069 5.147 22.031 7.679 47.538 11.738 73.76 11.738 24.813 0 49.126-3.653 70.303-10.561 5.731-1.863 11.296-3.993 16.538-6.331 2.682-1.197 5.299-.544 6.853.465.966.626 2.116 1.737 2.116 3.466 0 17.379-6.283 33.475-16.928 46.595-13.088-10.611-30.143-15.422-47.063-12.985z"/></g></g></svg>