<svg height="512" viewBox="0 0 58 58" width="512" xmlns="http://www.w3.org/2000/svg"><g id="Page-1" fill="none" fill-rule="evenodd"><g id="037---Clothing" fill-rule="nonzero"><path id="Shape" d="m37 51v6c0 .5522847-.4477153 1-1 1h-23c-.5522847 0-1-.4477153-1-1v-14.5h25z" fill="#f0c419"/><path id="Shape" d="m27 18.64v-6.79c.0011023-1.0212699.8287301-1.8488977 1.85-1.85h.15c.9745828-.00383327 1.8870785-.47898388 2.4490304-1.27524786s.7038992-1.81521815.3809696-2.73475214c-.310567-.89549122-1.0322315-1.5873964-1.94-1.86-1.4476538-.44557298-3.0003679.25786654-3.62 1.64-.2943412.72435468-.988473 1.20671747-1.77 1.23h-.08c-.6719641-.00215936-1.2982144-.34062576-1.6681664-.90158558s-.4344605-1.26989399-.1718336-1.88841442c1.2932673-2.97325526 4.4590981-4.66924624 7.6508461-4.09869209 3.1917479.57055416 5.5739447 3.25830583 5.7570418 6.49547473s-1.8808327 6.17639736-4.9878879 7.10321736v4.93z" fill="#a5a5a4"/><path id="Shape" d="m53.8 29.61-22.8-10.97-.7-.34c-.8205244-.39995-1.7794756-.39995-2.6 0l-.7.34-22.8 10.97c-3.67335049 1.7763341-5.22691648 6.1825687-3.48 9.87 1.3017968 2.6169403 3.987385 4.2570535 6.91 4.22h42.74c2.922615.0370535 5.6082032-1.6030597 6.91-4.22 1.7469165-3.6874313.1933505-8.0936659-3.48-9.87zm-3.21 9.09h-43.18c-1.3307776-.0005518-2.40944815-1.0792224-2.41-2.41.00490347-.9280801.53589861-1.7730213 1.37-2.18l22.63-10.9 22.63 10.9c.8341014.4069787 1.3650965 1.2519199 1.37 2.18-.0005518 1.3307776-1.0792224 2.4094482-2.41 2.41z" fill="#3b97d3"/><path id="Shape" d="m42 33.7h-25c-2.7614237 0-5 2.2385763-5 5h10v10.3c.0032948 1.1032019.8967981 1.9967052 2 2h21c1.1032019-.0032948 1.9967052-.8967981 2-2v-10.3c0-2.7614237-2.2385763-5-5-5z" fill="#f9eab0"/><path id="Shape" d="m22 38.7h-10c0-2.7614237 2.2385763-5 5-5s5 2.2385763 5 5z" fill="#f0c419"/><g fill="#fff"><path id="Shape" d="m29 39h-3c-.5522847 0-1-.4477153-1-1s.4477153-1 1-1h3c.5522847 0 1 .4477153 1 1s-.4477153 1-1 1z"/><path id="Shape" d="m43 39h-10c-.5522847 0-1-.4477153-1-1s.4477153-1 1-1h10c.5522847 0 1 .4477153 1 1s-.4477153 1-1 1z"/></g></g></g></svg>