<svg height="512pt" viewBox="-49 0 511 512" width="512pt" xmlns="http://www.w3.org/2000/svg"><path d="m166.144531 29.273438c-1.375-1.828126-3.660156-5.296876-3.660156-5.296876 7.121094 11.304688 20.4375 25.4375 45.300781 39.777344 21.113282-12.171875 33.886719-24.195312 41.625-34.46875-27.753906 3.535156-55.511718 3.527344-83.265625-.011718zm0 0" fill="#1a396b"/><g fill="#ffe046"><path d="m154.367188 0s-2.753907 31.359375 53.417968 63.753906c0 0-63.753906 5.171875-74.09375-51.003906zm0 0"/><path d="m6.523438 479.96875v28.472656c0 1.964844 1.59375 3.558594 3.558593 3.558594h44.285157c1.964843 0 3.5625-1.59375 3.5625-3.558594v-28.78125c-16.976563 5.1875-34.113282 5.191406-51.40625.308594zm0 0"/><path d="m261.203125 0s2.757813 31.359375-53.417969 63.753906c0 0 63.753906 5.171875 74.09375-51.003906zm0 0"/><path d="m261.203125 0c-35.609375 6.066406-71.222656 6.066406-106.832031 0 0 0-1.074219 12.214844 11.773437 29.273438 27.757813 3.539062 55.515625 3.546874 83.277344.011718 12.855469-17.0625 11.78125-29.285156 11.78125-29.285156zm0 0"/></g><path d="m369.894531 68.101562c-8.199219-29.609374-88.015625-55.347656-88.015625-55.347656-10.339844 56.171875-74.09375 51-74.09375 51s-63.753906 5.171875-74.09375-51.003906c0 0-79.816406 25.742188-88.015625 55.347656 0 0 45.191407 66.773438 30.082031 183.558594-15.113281 116.785156-5.757812 177.949219-5.757812 177.949219 91.855469 14.945312 183.714844 14.945312 275.570312 0 0 0 9.355469-61.164063-5.757812-177.949219-15.109375-116.78125 30.082031-183.554688 30.082031-183.554688zm0 0" fill="#2d56a1"/><path d="m369.894531 68.101562c-8.199219-29.609374-88.015625-55.351562-88.015625-55.351562-.878906 4.777344-2.148437 9.097656-3.730468 13.027344 1.109374.496094 2.226562 1.003906 3.347656 1.527344 29.824218 13.824218 44.429687 48.066406 33.742187 79.15625-10.707031 31.148437-20.84375 80.5-12.46875 145.195312 15.109375 116.785156 5.753907 183.101562 5.753907 183.101562s0 0 37.046874-5.152343c0 0 9.355469-61.164063-5.753906-177.949219-15.113281-116.78125 30.078125-183.554688 30.078125-183.554688zm0 0" fill="#24447f"/><path d="m75.757812 251.65625c15.109376-116.78125-30.082031-183.554688-30.082031-183.554688s-49.585937 299.277344-44.859375 405.492188c.128906 2.855469 2.058594 5.332031 4.800782 6.136719 17.65625 5.15625 35.152343 5.21875 52.476562-.113281 2.445312-.753907 4.246094-2.84375 4.65625-5.367188l7.25-44.640625c0-.003906-9.355469-61.167969 5.757812-177.953125zm0 0" fill="#aaa"/><path d="m369.894531 68.097656s0 .003906 0 0c0 0-45.191406 66.773438-30.078125 183.558594 15.109375 116.785156 5.753906 177.949219 5.753906 177.949219l7.269532 44.742187c.398437 2.464844 2.15625 4.5 4.542968 5.238282 17.390626 5.375 34.957032 5.308593 52.679688.109374 2.679688-.785156 4.5625-3.203124 4.6875-5.988281 4.769531-106.113281-44.855469-405.609375-44.855469-405.609375zm0 0" fill="#aaa"/><path d="m369.894531 68.097656s0 .003906 0 0c0 0-7.128906 10.546875-14.78125 30.570313 12.125 77.203125 42.394531 280.246093 40.164063 369.101562-.164063 6.449219-4.621094 12.058594-10.914063 13.484375-3.511719.796875-7.015625 1.386719-10.515625 1.777344 11.992188 1.359375 24.066406.222656 36.214844-3.335938 2.675781-.785156 4.5625-3.203124 4.6875-5.988281 4.769531-106.113281-44.855469-405.609375-44.855469-405.609375zm0 0" fill="#9b9b9b"/><path d="m357.644531 479.660156v28.78125c0 1.964844 1.59375 3.558594 3.558594 3.558594h44.285156c1.964844 0 3.5625-1.59375 3.5625-3.558594v-28.472656c-17.292969 4.882812-34.433593 4.878906-51.40625-.308594zm0 0" fill="#ffe046"/><path d="m70 429.605469 1.058594 10.078125c1.378906 13.125 11.707031 23.546875 24.824218 24.984375 74.007813 8.101562 148.59375 7.953125 223.730469-.074219 13.152344-1.40625 23.527344-11.835938 24.910157-24.992188l1.046874-9.992187c-92.664062 14.8125-184.535156 15.078125-275.570312-.003906zm0 0" fill="#ffe046"/><path d="m307.976562 434.8125-.5 4.785156c-1.382812 13.15625-11.757812 23.589844-24.910156 24.996094-31.570312 3.371094-63.039062 5.335938-94.414062 5.898438 43.628906.78125 87.449218-1.195313 131.460937-5.898438 13.152344-1.40625 23.527344-11.839844 24.910157-24.996094l1.046874-9.992187c-12.546874 2.007812-25.078124 3.738281-37.59375 5.207031zm0 0" fill="#ffd508"/><path d="m317.046875 369.148438c-2.152344 0-4.296875-.894532-5.824219-2.644532-28.796875-32.984375-17.234375-89.839844-16.730468-92.242187.878906-4.175781 4.980468-6.847657 9.15625-5.96875 4.171874.878906 6.84375 4.972656 5.96875 9.144531-.109376.515625-10.457032 51.753906 13.246093 78.90625 2.808594 3.214844 2.476563 8.09375-.738281 10.898438-1.464844 1.28125-3.277344 1.90625-5.078125 1.90625zm0 0" fill="#aaa"/><path d="m98.523438 369.148438c-1.800782 0-3.613282-.625-5.078126-1.90625-3.210937-2.804688-3.542968-7.683594-.738281-10.898438 23.703125-27.152344 13.355469-78.390625 13.25-78.90625-.871093-4.175781 1.804688-8.269531 5.976563-9.140625 4.175781-.878906 8.265625 1.792969 9.144531 5.964844.507813 2.402343 12.066406 59.257812-16.726563 92.242187-1.53125 1.75-3.671874 2.644532-5.828124 2.644532zm0 0" fill="#aaa"/><path d="m207.785156 448.542969c-4.265625 0-7.726562-3.460938-7.726562-7.726563v-377.058594c0-4.269531 3.460937-7.726562 7.726562-7.726562 4.269532 0 7.726563 3.457031 7.726563 7.726562v377.058594c0 4.265625-3.457031 7.726563-7.726563 7.726563zm0 0" fill="#aaa"/><path d="m284.363281 168.464844h-28.507812c-7.8125 0-14.171875-6.355469-14.171875-14.171875v-48.5625c0-7.8125 6.359375-14.167969 14.171875-14.167969h28.507812c7.8125 0 14.167969 6.355469 14.167969 14.167969v8.839843c0 4.269532-3.457031 7.726563-7.722656 7.726563-4.269532 0-7.726563-3.457031-7.726563-7.726563v-7.554687h-25.945312v45.996094h25.945312v-7.554688c0-4.269531 3.457031-7.726562 7.726563-7.726562 4.265625 0 7.722656 3.457031 7.722656 7.726562v8.839844c0 7.8125-6.355469 14.167969-14.167969 14.167969zm0 0" fill="#ffe046"/></svg>