<svg id="Layer_1" height="512" viewBox="0 0 512 512" width="512" xmlns="http://www.w3.org/2000/svg" data-name="Layer 1"><path d="m432.54 154.01a126.512 126.512 0 0 0 -58.99-63.26l-.17-.01-.02.38-23.05-9.47a126.334 126.334 0 0 0 -33.3-4.72l-61.01-1.85v400.37l23.68 18.65a14.085 14.085 0 0 0 9.3 3.01l86.46-3.57a14.14 14.14 0 0 0 13.56-14.09v-217.72l80.11-21.74z" fill="#4689d3"/><path d="m194.99 77.11a126.786 126.786 0 0 0 -33.29 4.89h.3l-23.205 9.165-.1-.4h-.208a126.5 126.5 0 0 0 -59.01 63.255l-36.577 85.973 80.1 21.737v217.73a14.129 14.129 0 0 0 13.55 14.08l85.61 3.58a14.194 14.194 0 0 0 9.14-2.87l24.7-18.8v-400.37z" fill="#5fa8ed"/><path d="m256 76.078v-1l-61.01 2.03a126.786 126.786 0 0 0 -33.29 4.892h.3l-23.205 9.165-.1-.4h-.208a126.5 126.5 0 0 0 -59.01 63.255l-36.577 85.973 80.1 21.737v217.73a14.129 14.129 0 0 0 13.55 14.08l23.288.974a14.087 14.087 0 0 1 -6.838-12.054v-220.73l-80.1-21.737 36.58-85.977a126.5 126.5 0 0 1 59.01-63.255h.208l.1.4 23.202-9.161h-.3a126.786 126.786 0 0 1 33.29-4.89z" fill="#5393c9"/><path d="m348.78 44 1.91 47.17a11.344 11.344 0 0 0 22.67-.038l.02-.336 1.89-46.796z" fill="#c79a83"/><path d="m136.73 44 1.89 46.79.02.355a11.345 11.345 0 0 0 22.67.031l1.91-47.176z" fill="#c79a83"/><path d="m123.08 337.94c.37.39.74.78 1.12 1.16a41.975 41.975 0 0 0 25.92 12.14 41.975 41.975 0 0 0 -25.92 12.14c-.38.38-.76.77-1.12 1.17a41.9 41.9 0 0 0 -11.01 24.75 42.044 42.044 0 0 0 -38.06-38.06 42.038 42.038 0 0 0 38.06-38.06 41.925 41.925 0 0 0 11.01 24.76z" fill="#adf0e5"/><path d="m256 99.08-69.91-43.43.1-.04a228.24 228.24 0 0 1 139.6.07l.02.03z" fill="#afb4c9"/><path d="m186.09 55.65 31.97 76.48 37.94-33.05z" fill="#7fb9e5"/><path d="m325.81 55.71-69.81 43.37 37.94 33.05 31.97-76.48z" fill="#67a4d8"/><g fill="#284268"><path d="m159 172.718a6 6 0 0 0 -6 6v2.7a6 6 0 0 0 12 0v-2.7a6 6 0 0 0 -6-6z"/><path d="m159 194.777a6 6 0 0 0 -6 6v66.711a6 6 0 0 0 12 0v-66.711a6 6 0 0 0 -6-6z"/><path d="m506.575 12.654a6 6 0 0 0 -7.793-3.354 658.348 658.348 0 0 1 -117.52 34.457 5.861 5.861 0 0 0 -1.664-3.962 5.95 5.95 0 0 0 -4.327-1.795h-26.49a5.915 5.915 0 0 0 -6 6.164l.238 5.869c-4.232.565-8.479 1.074-12.717 1.555a5.574 5.574 0 0 0 -3.394-1.839 232.83 232.83 0 0 0 -142.551.151l-.1.033.006.017a5.946 5.946 0 0 0 -2.065 1.128 5.788 5.788 0 0 0 -.5.5c-4.245-.484-8.494-1-12.726-1.561l.238-5.88a5.878 5.878 0 0 0 -1.668-4.346 5.949 5.949 0 0 0 -4.323-1.791h-26.49a5.9 5.9 0 0 0 -5.991 5.781 658.483 658.483 0 0 1 -117.52-34.471 6 6 0 1 0 -4.436 11.141 670.5 670.5 0 0 0 122.435 35.608l1.256 31.061a132.833 132.833 0 0 0 -58.537 64.542l-36.529 85.981a6 6 0 0 0 .125 4.967 5.933 5.933 0 0 0 3.787 3.17l75.681 20.54v43.612a5.811 5.811 0 0 0 -4.976-2.751 5.981 5.981 0 0 0 -5.955 5.457 36.017 36.017 0 0 1 -32.616 32.626 6 6 0 0 0 .008 11.951 36.03 36.03 0 0 1 32.628 32.626 5.961 5.961 0 0 0 5.934 5.457 5.813 5.813 0 0 0 4.977-2.752v86.909a20.087 20.087 0 0 0 19.3 20.083l86.446 3.59a20.164 20.164 0 0 0 12.186-4.106l21-15.981 20.027 15.773a20.07 20.07 0 0 0 13.268 4.293l86.458-3.573a20.088 20.088 0 0 0 19.315-20.084v-213.13l75.681-20.54a5.995 5.995 0 0 0 3.921-8.137l-36.54-85.981a132.841 132.841 0 0 0 -58.535-64.539l1.256-31.066a670.367 670.367 0 0 0 122.435-35.61 6 6 0 0 0 3.357-7.793zm-137.553 37.346-1.657 40.934a5.345 5.345 0 0 1 -10.678.012l-1.658-40.946zm-40.028 13.82c4.828-.531 9.684-1.121 14.517-1.758l.479 11.849a132.558 132.558 0 0 0 -18.118-2.621zm-160.505-1.757c4.828.636 9.677 1.208 14.509 1.739l3.13 7.488a132.558 132.558 0 0 0 -18.118 2.621zm-11.518-12.063-1.658 40.934a5.345 5.345 0 0 1 -10.678.012l-1.657-40.946zm-37.953 310.144a5.883 5.883 0 0 0 -.629.673 48.079 48.079 0 0 0 -6.324 8.716 48.146 48.146 0 0 0 -18.293-18.294 48.136 48.136 0 0 0 18.293-18.293 48.121 48.121 0 0 0 5.967 8.334 6.007 6.007 0 0 0 1.477 1.58 48.051 48.051 0 0 0 10.85 8.379 48.085 48.085 0 0 0 -11.341 8.905zm130.982 112.335-22.327 16.994a8.145 8.145 0 0 1 -5.245 1.648l-85.628-3.572a8.117 8.117 0 0 1 -7.8-8.094v-112.444a36.811 36.811 0 0 1 21.626-9.8 6 6 0 0 0 -.011-11.951 36.792 36.792 0 0 1 -21.615-9.8v-143.822a6 6 0 0 0 -12 0v62.249l-65.9-17.887 33.859-79.646a120.833 120.833 0 0 1 50.062-56.873 17.352 17.352 0 0 0 32.279-8.115l.2-5.031a120.482 120.482 0 0 1 23.526-3.308l21.489 51.418a6 6 0 0 0 9.478 2.21l28-24.392zm-51.136-401.834 47.072 29.244-25.548 22.256zm1.846-12.981a220.444 220.444 0 0 1 110.513.042l-55.223 34.309zm112.426 12.981-21.524 51.5-25.548-22.256zm113.881 85.709 33.883 79.646-65.9 17.887v-62.249a6 6 0 0 0 -12 0v287.812a8.114 8.114 0 0 1 -7.808 8.093l-86.436 3.574a8.109 8.109 0 0 1 -5.358-1.729l-21.398-16.848v-360.277l28 24.392a6 6 0 0 0 9.478-2.21l21.489-51.418a120.482 120.482 0 0 1 23.526 3.308l.2 5.031a17.352 17.352 0 0 0 32.276 8.119 120.824 120.824 0 0 1 50.048 56.869z"/></g></svg>