<svg height="512" viewBox="0 0 56 60" width="512" xmlns="http://www.w3.org/2000/svg"><g id="075---Skirt" fill="none"><g id="Icons" transform="translate(1 1)"><path id="Shape" d="m43 1v6h-32v-6c0-.55228475.4477153-1 1-1h30c.5522847 0 1 .44771525 1 1z" fill="#00838f"/><path id="Shape" d="m40 1v6h-29v-6c0-.55228475.4477153-1 1-1h27c.5522847 0 1 .44771525 1 1z" fill="#00bcd4"/><path id="Shape" d="m54 51s-4.88 3.8-14.65 5.8c-3.0815761.6252155-6.2082014 1.0030857-9.35 1.13-.65 0-1.32 0-2 .06h-1c-18 .01-27-6.99-27-6.99.58868334-15.5891309 4.330668-30.8972499 11-45h32c6.669332 14.1027501 10.4113167 29.4108691 11 45z" fill="#0377bc"/><path id="Shape" d="m51.62 51.52s-4.09 3.18-12.27 5.28c-3.0815761.6252155-6.2082014 1.0030857-9.35 1.13-.65 0-1.32 0-2 .06h-1c-18 .01-27-6.99-27-6.99.58868334-15.5891309 4.330668-30.8972499 11-45h29.5c6.7430024 14.2665682 10.5257554 29.7513626 11.12 45.52z" fill="#02a9f4"/></g><g id="Layer_9" fill="#000" transform="translate(-1)"><path id="Shape" d="m46 2c0-1.1045695-.8954305-2-2-2h-30c-1.1045695 0-2 .8954305-2 2v4.76c-6.62795998 14.2022052-10.36706367 29.5801189-11 45.24-.01199971.3234819.13332503.6327628.39.83.37.25 9.48 7.17 27.61 7.17h2 .1c16.72-.51 25.15-6.88 25.51-7.16.2596363-.1993012.4053043-.5130478.39-.84-.6329363-15.6598811-4.37204-31.0377948-11-45.24zm-2 4h-12v-4h12zm-30-4h16v4h-16zm-11 49.5c.69741344-15.0497944 4.3038571-29.8219506 10.62-43.5h5.85c-5.47 5.53-6.42 10.6-6.47 10.84-.0883655.5522847.2877153 1.0716344.84 1.16.5522847.0883655 1.0716344-.2877153 1.16-.84 0 0 .72-4.08 5-8.76-1.3095309 5.0972243-1.981333 10.3372803-2 15.6 0 .5522847.4477153 1 1 1s1-.4477153 1-1c-.0080766-6.1029719.9090074-12.1719097 2.72-18h7.28v50h-1c-15.31 0-24-5.21-26-6.5zm29 6.43v-49.93h3.28c1.8131061 5.827605 2.730239 11.8968673 2.72 18 0 .5522847.4477153 1 1 1s1-.4477153 1-1c-.0004962-5.2601288-.6521174-10.4999693-1.94-15.6 4.2 4.67 4.95 8.72 4.95 8.77.091127.5522847.6127153.9261269 1.165.8349999.5522847-.0911269.926127-.6127152.835-1.1649999 0-.24-1-5.31-6.46-10.84h5.85c6.3140434 13.6777695 9.9139132 28.4508204 10.6 43.5-1.81 1.2-9.5 5.81-23 6.43z"/><circle id="Oval" cx="27" cy="12" r="1"/><circle id="Oval" cx="27" cy="20" r="1"/><circle id="Oval" cx="27" cy="28" r="1"/><circle id="Oval" cx="27" cy="36" r="1"/><circle id="Oval" cx="27" cy="44" r="1"/><circle id="Oval" cx="27" cy="52" r="1"/></g></g></svg>