<svg height="512pt" viewBox="-3 0 512 512" width="512pt" xmlns="http://www.w3.org/2000/svg"><path d="m86.984375 504.5h332.332031c-9.648437-53.792969-23.050781-135.648438-20.941406-164.5625 6.011719-82.429688 51.507812-237.625 51.507812-237.625l-116.847656-38.691406c-19.203125-6.355469-32.167968-24.308594-32.167968-44.535156 0-6.398438-5.1875-11.585938-11.585938-11.585938h-72.265625c-6.398437 0-11.585937 5.1875-11.585937 11.585938 0 20.226562-12.964844 38.179687-32.167969 44.535156l-116.84375 38.691406s45.496093 155.195312 51.507812 237.625c2.109375 28.914062-11.292969 110.769531-20.941406 164.5625zm0 0" fill="#ffefd0"/><path d="m398.375 339.9375c6.011719-82.429688 51.507812-237.625 51.507812-237.625l-116.847656-38.691406c-19.203125-6.355469-32.167968-24.308594-32.167968-44.535156 0-6.398438-5.1875-11.585938-11.585938-11.585938h-36.230469v32.230469c0 20.226562 12.96875 38.175781 32.171875 44.535156l105.125 34.808594c6.53125 2.164062 10.207032 9.074219 8.339844 15.695312-10.652344 37.765625-43.113281 157.082031-48.128906 225.8125-1.851563 25.410157 8.273437 91.710938 17.304687 143.917969h51.453125c-9.648437-53.792969-23.050781-135.648438-20.941406-164.5625zm0 0" fill="#efd0af"/><path d="m418.75 328.269531c3.933594 30.726563 5.960938 61.542969 3.34375 93.171875l-2.777344 83.058594h64.839844c6.417969 0 11.679688-5.070312 11.917969-11.484375 2.335937-63.816406 7.28125-168.96875-7.667969-272.996094-8.519531-59.261719-38.523438-117.707031-38.523438-117.707031l-44.582031-14.761719 6.097657 168.339844c4.109374 24.304687 4.269531 48.3125 7.351562 72.378906zm0 0" fill="#464b56"/><path d="m488.40625 220.019531c-8.515625-59.261719-38.523438-117.707031-38.523438-117.707031l-44.582031-14.761719 1.242188 34.210938c9.554687 22.070312 24.011719 59.992187 29.511719 98.257812 15.886718 110.539063 9.308593 222.34375 7.265624 284.480469h40.835938c6.417969 0 11.679688-5.070312 11.917969-11.484375 2.339843-63.816406 7.285156-168.96875-7.667969-272.996094zm0 0" fill="#353944"/><path d="m87.53125 328.269531c-3.933594 30.726563-5.960938 61.542969-3.34375 93.171875l2.777344 83.058594h-64.839844c-6.417969 0-11.679688-5.070312-11.917969-11.484375-2.339843-63.816406-7.28125-168.96875 7.667969-272.996094 8.519531-59.261719 38.523438-117.707031 38.523438-117.707031l44.582031-14.761719-6.101563 168.339844c-4.105468 24.304687-4.265625 48.3125-7.347656 72.378906zm0 0" fill="#464b56"/><path d="m79.742188 94.582031-27.257813 120.371094c-7.640625 33.75-12.90625 67.988281-15.714844 102.476563-3.214843 39.445312-5.792969 85.332031-4.246093 104.011718l2.777343 83.058594h51.664063l-2.773438-83.058594c-2.617187-31.628906-.589844-62.445312 3.34375-93.171875 3.082032-24.066406 3.238282-48.074219 7.347656-72.378906l6.097657-168.339844zm0 0" fill="#353944"/><path d="m398.375 339.9375c6.011719-82.429688 51.507812-237.625 51.507812-237.625l-116.847656-38.691406-16.214844-12.054688-63.667968 66.933594-63.691406-66.933594-16.195313 12.058594-116.847656 38.6875s45.496093 155.195312 51.507812 237.625c2.109375 28.914062-11.292969 110.769531-20.941406 164.5625h332.332031c-9.648437-53.792969-23.050781-135.648438-20.941406-164.5625zm0 0" fill="#464b56"/><path d="m398.375 339.9375c6.011719-82.429688 51.507812-237.625 51.507812-237.625l-116.847656-38.691406-16.214844-12.054688-31.222656 32.824219 104.75 34.683594c6.53125 2.160156 10.207032 9.074219 8.339844 15.695312-10.652344 37.765625-43.117188 157.082031-48.128906 225.808594-1.851563 25.414063 8.273437 91.714844 17.304687 143.921875h51.453125c-9.648437-53.792969-23.050781-135.648438-20.941406-164.5625zm0 0" fill="#353944"/><path d="m388.515625 254.4375h-65.679687v-5.003906c0-8.765625 7.105468-15.871094 15.871093-15.871094h33.9375c8.765625 0 15.871094 7.105469 15.871094 15.871094zm0 0" fill="#efeef3"/><path d="m316.820312 51.566406-63.667968 33.960938-63.691406-33.960938c-21.070313 145.488282 63.679687 348.066406 63.679687 348.066406s84.75-202.578124 63.679687-348.066406zm0 0" fill="#efeef3"/><path d="m316.820312 51.566406-46.289062 24.691406c4.292969 3.460938 9.238281 6.203126 14.691406 8.007813l34.921875 11.5625c-.210937-15.140625-1.253906-29.976563-3.324219-44.261719zm0 0" fill="#d6d6d6"/><path d="m189.460938 51.566406c-20.664063 145.488282 63.675781 348.066406 63.675781 348.066406s-138.746094-202.277343-104.867188-316.105468c3.832031-12.863282 41.191407-31.960938 41.191407-31.960938zm0 0" fill="#353944"/><path d="m316.820312 51.566406c20.664063 145.488282-63.675781 348.066406-63.675781 348.066406s138.746094-202.277343 104.867188-316.105468c-3.828125-12.863282-41.191407-31.960938-41.191407-31.960938zm0 0" fill="#353944"/><path d="m253.152344 123.671875c0 15.554687-32.769532 28.167969-48.324219 28.167969-15.558594 0-15.558594-56.335938 0-56.335938 15.554687 0 48.324219 12.609375 48.324219 28.167969zm0 0" fill="#f43b45"/><path d="m253.152344 123.671875c0 15.554687 32.765625 28.167969 48.320312 28.167969 15.558594 0 15.558594-56.335938 0-56.335938-15.554687 0-48.320312 12.609375-48.320312 28.167969zm0 0" fill="#f43b45"/><path d="m257.492188 138.140625h-8.683594c-5.59375 0-10.128906-4.535156-10.128906-10.128906v-8.683594c0-5.59375 4.535156-10.128906 10.128906-10.128906h8.683594c5.59375 0 10.128906 4.535156 10.128906 10.128906v8.683594c0 5.59375-4.535156 10.128906-10.128906 10.128906zm0 0" fill="#d82b2b"/><path d="m246.953125 403.875c1.253906 1.832031 3.195313 2.945312 5.261719 3.199219.007812.003906.011718.003906.015625.003906.058593.007813.121093.011719.179687.019531.015625 0 .035156.003906.050782.003906.046874.003907.097656.007813.144531.011719.027343.003907.054687.003907.085937.007813.070313.003906.140625.007812.210938.007812h.011718c.074219.003906.152344.003906.226563.003906.078125 0 .152344 0 .230469-.003906h.011718c.070313 0 .140626-.003906.210938-.007812.027344-.003906.054688-.003906.082031-.007813.050781-.003906.097657-.007812.144531-.011719.019532 0 .039063-.003906.058594-.003906.058594-.007812.113282-.011718.171875-.019531.007813 0 .011719 0 .019531-.003906 2.0625-.253907 4.003907-1.367188 5.261719-3.199219.351563-.511719 35.382813-51.816406 65.742188-116.421875 4.082031-8.683594 7.890625-17.191406 11.429687-25.515625h52.011719c4.144531 0 7.5-3.359375 7.5-7.5v-5.003906c0-12.886719-10.484375-23.371094-23.371094-23.371094h-22.179687c20.769531-59.214844 25.734375-107.714844 14.734375-144.675781-4.382813-14.730469-35.261719-31.53125-44.839844-36.433594-.34375-.183594-.703125-.339844-1.070313-.46875-.007812-.003906-.019531-.007813-.027343-.011719-.105469-.035156-.210938-.070312-.320313-.101562-.015625-.003906-.035156-.007813-.050781-.015625-.03125-.007813-.0625-.015625-.09375-.023438-.015625-.007812-.035156-.011719-.050781-.015625-.058594-.015625-.117188-.03125-.171875-.042968-.011719-.003907-.027344-.007813-.042969-.007813-.035156-.007813-.070312-.019531-.105469-.027344-.007812 0-.015625 0-.023437-.003906-.355469-.078125-.71875-.128906-1.085938-.152344-5.796875-7.035156-8.945312-15.765625-8.945312-24.996093-.003906-10.523438-8.5625-19.085938-19.089844-19.085938h-72.261719c-10.523437 0-19.085937 8.5625-19.085937 19.085938 0 9.230468-3.148438 17.960937-8.945313 24.996093-.195312.011719-.386719.03125-.578125.058594-.015625.003906-.035156.003906-.050781.007813-.023437.003906-.050781.007812-.078125.011718-.03125.003906-.058594.011719-.089844.015625-.019531.003907-.039062.003907-.058594.007813-.050781.011718-.105468.019531-.15625.03125-.003906 0-.007812.003906-.011718.003906-.050782.007812-.105469.019531-.15625.03125-.007813.003906-.011719.003906-.019532.003906-.113281.027344-.226562.054688-.339843.085938-.058594.015625-.117188.03125-.171875.050781h-.003906c-.054688.019531-.109376.035156-.167969.054687-.003907 0-.003907 0-.007813.003907-.046875.015625-.09375.03125-.136718.046875-.019532.007812-.035157.011718-.050782.019531-.035156.007813-.066406.019531-.097656.035156-.054688.019531-.113281.042969-.167969.0625 0 .003907-.003906.003907-.003906.003907-.242187.097656-.480469.210937-.714844.332031-9.574219 4.902343-40.457031 21.707031-44.84375 36.4375-14.589843 49.023437-1.089843 118.355469 40.128907 206.066406 30.359374 64.605469 65.390624 115.910156 65.742187 116.421875zm63.757813-340.546875c1.023437 9.78125 1.589843 19.792969 1.773437 29.945313-3.886719-4.425782-8.25-5.269532-11.011719-5.269532-10.867187 0-29.039062 5.238282-41.554687 13.863282-.792969-.109376-1.601563-.167969-2.425781-.167969h-8.683594c-.824219 0-1.632813.058593-2.425782.167969-12.515624-8.625-30.6875-13.863282-41.554687-13.863282-2.765625 0-7.140625.847656-11.03125 5.292969.183594-10.15625.75-20.179687 1.773437-29.96875l54.050782 28.820313c1.105468.589843 2.316406.882812 3.53125.882812 1.210937 0 2.425781-.292969 3.527344-.882812zm-77.609376 72.683594c-9.078124 4.882812-20.738281 8.203125-27.878906 8.324219-1.652344-1.464844-4.5625-8.753907-4.5625-20.664063 0-11.914063 2.910156-19.203125 4.5625-20.667969 7.140625.121094 18.800782 3.441406 27.878906 8.324219-1.230468 2.402344-1.921874 5.121094-1.921874 8v8.683594c0 2.878906.691406 5.597656 1.921874 8zm15.707032-5.371094c-1.449219 0-2.628906-1.179687-2.628906-2.628906v-8.683594c0-1.449219 1.179687-2.628906 2.628906-2.628906h8.683594c1.449218 0 2.628906 1.179687 2.628906 2.628906v8.683594c0 1.449219-1.179688 2.628906-2.628906 2.628906zm24.390625-19.3125c9.078125-4.882813 20.738281-8.203125 27.882812-8.324219 1.648438 1.464844 4.558594 8.753906 4.558594 20.667969 0 11.910156-2.910156 19.199219-4.558594 20.664063-7.144531-.121094-18.804687-3.441407-27.882812-8.324219 1.230469-2.402344 1.921875-5.125 1.921875-8v-8.683594c0-2.878906-.691406-5.597656-1.921875-8zm-68.371094 48.011719c10.867187 0 29.039063-5.242188 41.554687-13.867188.792969.113282 1.605469.167969 2.429688.167969h8.679688c.824218 0 1.632812-.054687 2.429687-.167969 12.511719 8.625 30.6875 13.867188 41.554687 13.867188 2 0 4.839844-.445313 7.730469-2.371094-4.890625 43.878906-14.429687 86.667969-23.664062 121.042969-11.761719 43.78125-24.691407 80.441406-32.402344 100.984375-7.710937-20.542969-20.640625-57.203125-32.402344-100.984375-9.234375-34.378907-18.773437-77.171875-23.664062-121.058594 2.898437 1.9375 5.746093 2.386719 7.753906 2.386719zm167.816406 81.722656c3.746094 0 6.925781 2.476562 7.992188 5.875h-37.976563c.78125-1.96875 1.542969-3.925781 2.289063-5.875zm-21.820312-155.394531c20.976562 70.484375-27.949219 178.363281-65.570313 246.421875 4.816406-15.0625 9.867188-31.929688 14.722656-49.984375 22.867188-85.082031 31.597657-157.921875 26.011719-216.835938 12.476563 7.542969 23.527344 16 24.835938 20.398438zm-137.890625-66.582031c0-2.253907 1.832031-4.085938 4.085937-4.085938h72.261719c2.253906 0 4.085938 1.832031 4.085938 4.085938 0 11.167968 3.527343 22.128906 9.878906 31.222656l-50.097656 26.722656-50.097657-26.714844c6.355469-9.097656 9.882813-20.0625 9.882813-31.230468zm-57.476563 66.582031c1.308594-4.390625 12.355469-12.84375 24.835938-20.394531-5.585938 58.914062 3.144531 131.753906 26.015625 216.832031 4.855468 18.078125 9.914062 34.957031 14.730468 50.03125-37.625-68.042969-86.574218-175.945313-65.582031-246.46875zm0 0"/><path d="m495.828125 218.953125c-8.382813-58.339844-36.890625-115.390625-39.195313-119.914063-.855468-1.761718-2.394531-3.1875-4.390624-3.847656l-68.253907-22.597656c-3.9375-1.300781-8.175781.828125-9.476562 4.761719-1.300781 3.933593.828125 8.175781 4.761719 9.476562l61.410156 20.332031c-3.8125 13.375-12.53125 44.605469-21.582032 81.25-16.191406 65.574219-25.683593 116.371094-28.207031 150.976563-2 27.464844 9.117188 99.046875 19.46875 157.609375h-314.425781c10.351562-58.5625 21.472656-130.144531 19.46875-157.609375-5.347656-73.300781-40.789062-200.773437-49.78125-232.226563l61.796875-20.460937c3.933594-1.300781 6.0625-5.546875 4.761719-9.476563-1.300782-3.933593-5.542969-6.066406-9.476563-4.765624l-68.644531 22.730468c-1.855469.613282-3.3125 1.882813-4.195312 3.46875-.054688.070313-.097657.144532-.140626.226563-1.25 2.429687-30.679687 60.25-39.273437 120.0625-14.292969 99.445312-10.574219 198.6875-8.113281 264.363281l.371094 9.976562c.386718 10.492188 8.914062 18.710938 19.414062 18.710938h462.03125c10.5 0 19.027344-8.21875 19.410156-18.710938l.371094-9.976562c2.464844-65.671875 6.183594-164.917969-8.109375-264.359375zm-403.882813 210.078125-.261718-7.839844c-.003906-.121094-.011719-.246094-.019532-.367187-2.257812-27.257813-1.203124-56.363281 3.308594-91.601563.828125-6.457031 1.449219-12.949218 1.988282-19.367187 1.601562 10.957031 2.804687 21.28125 3.484374 30.628906 1.039063 14.25-1.929687 44.828125-8.5 88.546875zm-69.820312 67.96875c-2.394531 0-4.335938-1.871094-4.421875-4.257812l-.371094-9.996094c-2.441406-65.132813-6.132812-163.5625 7.964844-261.660156 5.4375-37.816407 20.035156-75.734376 29.410156-97.296876 7.675781 27.648438 21.875 80.78125 32.546875 132.25-2.253906 13.808594-3.304687 27.566407-4.320312 40.882813-.761719 9.992187-1.550782 20.324219-2.839844 30.394531-4.640625 36.226563-5.71875 66.28125-3.398438 94.558594l2.515626 75.125zm383.730469-156.515625c.679687-9.324219 1.878906-19.617187 3.472656-30.542969.535156 6.390625 1.15625 12.851563 1.980469 19.28125 4.515625 35.234375 5.566406 64.34375 3.308594 91.601563-.007813.121093-.015626.242187-.019532.367187l-.257812 7.730469c-6.558594-43.65625-9.523438-74.199219-8.484375-88.4375zm83.09375 142.265625-.371094 9.988281c-.085937 2.390625-2.03125 4.261719-4.421875 4.261719h-57.085938l2.511719-75.125c2.324219-28.277344 1.246094-58.332031-3.394531-94.558594-1.289062-10.070312-2.078125-20.40625-2.839844-30.398437-1.015625-13.296875-2.066406-27.035157-4.3125-40.824219 10.671875-51.464844 24.871094-104.613281 32.550782-132.277344 9.375 21.558594 23.960937 59.449219 29.394531 97.269532 14.101562 98.101562 10.410156 196.527343 7.96875 261.664062zm0 0"/></svg>